<svg xmlns="http://www.w3.org/2000/svg" viewBox="0 0 32 32" id="campfire"><path d="M16 22c-4.5 0-8.1-3.6-8.1-8.1C7.9 11.4 9 9 11 7.5c1.2-1 2.2-2.2 2.9-3.6.2-.4.4-.9.6-1.5 0-.1.2-.3.3-.3.1-.1.3 0 .4 0 2.6 1.4 4.2 4.1 4.2 7.1 0 .7-.1 1.3-.2 1.9.8-.7 1.4-1.6 1.8-2.6.1-.2.2-.3.4-.3s.3 0 .5.2c1.4 1.5 2.2 3.5 2.2 5.5 0 4.5-3.6 8.1-8.1 8.1zM11.6 8.3c-1.7 1.4-2.7 3.4-2.7 5.6 0 3.9 3.2 7.1 7.1 7.1s7.1-3.2 7.1-7.1c0-1.5-.5-3-1.4-4.3-.7 1.3-1.8 2.5-3.2 3.2-.2.1-.4.1-.6-.1s-.2-.4-.1-.6c.5-1 .7-2 .7-3 0-2.4-1.2-4.6-3.2-5.9-.1.4-.3.7-.4 1-.7 1.6-1.9 3-3.3 4.1z"></path><path d="M16 22c-2.5 0-4.5-2-4.5-4.5 0-1.4.6-2.7 1.7-3.6.6-.5 1.1-1.1 1.5-1.8.1-.2.2-.5.3-.8 0-.1.2-.3.3-.3.1-.1.3 0 .4 0 1.4.8 2.3 2.3 2.3 3.9v.3c.2-.2.3-.4.4-.7.1-.2.2-.3.4-.3s.3 0 .5.2c.8.8 1.2 1.9 1.2 3 0 2.6-2 4.6-4.5 4.6zm-2.2-7.2c-.9.7-1.3 1.7-1.3 2.7 0 1.9 1.6 3.5 3.5 3.5s3.5-1.6 3.5-3.5c0-.6-.2-1.2-.5-1.8-.4.6-.9 1.1-1.6 1.5-.2.1-.4.1-.6-.1-.2-.1-.2-.4-.1-.6.2-.5.3-1 .3-1.5 0-1.1-.5-2.1-1.3-2.7 0 .1-.1.2-.1.3-.4.8-1 1.6-1.8 2.2.1 0 0 0 0 0zM7.5 27C6.1 27 5 25.9 5 24.5S6.1 22 7.5 22s2.5 1.1 2.5 2.5S8.9 27 7.5 27zm0-4c-.8 0-1.5.7-1.5 1.5S6.7 26 7.5 26 9 25.3 9 24.5 8.3 23 7.5 23zm17 4c-1.4 0-2.5-1.1-2.5-2.5s1.1-2.5 2.5-2.5 2.5 1.1 2.5 2.5-1.1 2.5-2.5 2.5zm0-4c-.8 0-1.5.7-1.5 1.5s.7 1.5 1.5 1.5 1.5-.7 1.5-1.5-.7-1.5-1.5-1.5zM16 30c-1.4 0-2.5-1.1-2.5-2.5S14.6 25 16 25s2.5 1.1 2.5 2.5S17.4 30 16 30zm0-4c-.8 0-1.5.7-1.5 1.5S15.2 29 16 29s1.5-.7 1.5-1.5S16.8 26 16 26z"></path><path d="M18 28c-.3 0-.5-.2-.5-.5v-5.6c-1 .2-2 .2-3 0v5.6c0 .3-.2.5-.5.5s-.5-.2-.5-.5v-6.2c0-.2.1-.3.2-.4.1-.1.3-.1.4-.1 1.3.3 2.5.3 3.8 0 .2 0 .3 0 .4.1.1.1.2.2.2.4v6.2c0 .3-.2.5-.5.5z"></path><path d="M24.6 27c-.7 0-1.3-.3-1.8-.7L18 21.5c-.1-.1-.2-.3-.1-.5s.2-.3.3-.4c1.2-.4 2.3-1.1 3.2-2.1.1-.1.2-.2.4-.2s.3 0 .4.1l4.2 4.2c1 1 1 2.6 0 3.5-.5.6-1.2.9-1.8.9zm-5.3-5.7 4.2 4.2c.6.6 1.6.6 2.1 0 .6-.6.6-1.5 0-2.1l-3.9-3.9c-.7.8-1.5 1.4-2.4 1.8zM7.5 27c-.6 0-1.3-.2-1.8-.7-1-1-1-2.6 0-3.5l4.2-4.2c.1-.1.2-.1.4-.1.1 0 .3.1.4.2.9 1 2 1.7 3.2 2.1.2.1.3.2.3.4s0 .3-.1.5l-4.8 4.8c-.5.3-1.2.5-1.8.5zm2.8-7.4-3.8 3.8c-.6.6-.6 1.5 0 2.1.6.6 1.5.6 2.1 0l4.2-4.2c-1-.4-1.8-1-2.5-1.7z"></path></svg>