<svg xmlns="http://www.w3.org/2000/svg" enable-background="new 0 0 50 50" viewBox="0 0 50 50" id="fishing"><path d="M37.1,32.6c-0.3-0.9-0.1-0.3-1-2.6c0,0-1,2-1.2,4.1c0.1-0.1,0.6-0.7,1.4-1.2c0.7,1.7-1,3.4-2.7,2.7c-1.2-0.5-1.1-1.4-2-3.3
		c0.4-0.4,0.5-0.9,0.3-1.4c-0.2-0.5-0.7-0.8-1.2-0.8C24.2,1.4,24.7,2.9,23.9,1.9c-0.3-0.4-0.9-0.8-1.4-1c-0.3-0.1-0.6-0.2-0.9-0.2
		l-0.3,0.9l-2.8,6.8c-3.4,8.3-4.9,12-6.6,15.9c-3-0.8-6.3,0.8-7.5,3.8c-1.1,2.6-0.3,5.6,1.8,7.3l-5.7,12l4.9,2l4.4-12.5
		c1.9,0.1,3.8-0.6,5.1-2l2.7,2l-1.2,1.8c-0.2,0.4-0.2,0.9,0.2,1.1c0.4,0.2,0.9,0.1,1.1-0.2l1.6-2.4l0.1-0.1l1.6-2.4
		c0.3-0.4,0.2-0.9-0.2-1.1c-0.4-0.2-0.9-0.1-1.1,0.2l-1.2,1.8l-2.6-2c1.3-2.2,1.1-5.7-1.3-7.8c2.8-0.8,4.5-4.6,3.1-7.2l1.5,0.6
		l0.3-0.8L18,17.7c2.8-0.9,4.3-4.7,2.9-7.3c0,0,0,0,0,0l1.6,0.7l0.3-0.8l-1.5-0.6c1.8-0.7,3-2.6,3.2-3.6l5.1,24.4
		c-0.4,0.4-0.5,0.9-0.3,1.4c0.2,0.5,0.7,0.8,1.3,0.8c0.9,2.1,1,3.1,2.5,3.7C35.7,37.5,38.1,35,37.1,32.6z M14.6,30.5
		c0,0.6-0.1,1.3-0.4,1.8L11,29.9c-0.4-0.3-0.9-0.2-1.1,0.2c-0.3,0.4-0.2,0.9,0.2,1.1l3.3,2.5c-0.8,0.8-1.8,1.2-3,1.2
		c-2.4,0-4.3-1.9-4.3-4.3s1.9-4.3,4.3-4.3C12.7,26.2,14.6,28.1,14.6,30.5z M13.6,25C13.6,25,13.6,25,13.6,25l2.8-6.8
		C18.6,20.3,16.6,25,13.6,25z M20.2,14.4C19.6,16,18.2,17,16.8,17l2.8-6.8C20.6,11.1,20.9,12.8,20.2,14.4z M20.1,9l2.8-6.8
		C25.2,4.4,23.1,9.1,20.1,9z"></path><path d="M43.1 23.6C43.1 23.6 43.1 23.6 43.1 23.6c-1.4-1.5-1.8-1.5-2.8-2.3-.1 1.2-.6 3.3-2.8 6.3.6.1 2 .5 2.5.8-.5.8-1.6 2.8.1 5 0 0-.4-1.7 1.8-2.9.9 1.8-.6 5.4-1.6 7.2l-3.7 1.6c.3.8 1.4.1 2 .6.6.4.7 2 1.5 2.1l.5-4.1c3-2.3 5.7-6.1 4.8-9.7.5-1.7 1.8-2.3 3.9-2C47.4 23.7 45.3 23.1 43.1 23.6zM32.5 23.1l4.2 4.2c2.6-3.6 2.8-5.7 2.8-6.5-1.9-.2-4.6.1-7.5.8l2.3 1.2L32.5 23.1zM36.7 21.7c.4 0 .7.3.7.7 0 .4-.3.7-.7.7-.4 0-.7-.3-.7-.7C36.1 22 36.4 21.7 36.7 21.7z"></path></svg>