<svg xmlns="http://www.w3.org/2000/svg" width="512pt" height="512pt" viewBox="0 0 512 512" id="guide"><path d="m196 241c-8.269531 0-15-6.730469-15-15h-30c0 24.8125 20.1875 45 45 45s45-20.1875 45-45h-30c0 8.269531-6.730469 15-15 15zm0 0"></path><path d="m361 178.074219c24.042969-14.375 30-30.066407 30-42.074219 0-37.257812-53.835938-56.769531-90.121094-65.144531-2.160156-39.433594-34.914062-70.855469-74.878906-70.855469h-60c-39.960938 0-72.71875 31.417969-74.878906 70.847656-36.253906 8.34375-91.121094 27.894532-91.121094 65.152344 0 16.953125 11.691406 31.125 31 42.417969v77.582031c0 33.828125 16.085938 63.964844 41.003906 83.183594-24.3125 12.417968-41.003906 37.695312-41.003906 66.816406v106h330v-106c0-29.121094-16.691406-54.398438-41.003906-66.816406 20.640625-15.917969 35.210937-39.324219 39.609375-66.117188l122.394531 80.996094v157.9375h30c0-17.144531 0-355.738281 0-373.914062l-151 99.925781zm-240-103.074219c0-24.8125 20.1875-45 45-45h60c24.8125 0 45 20.1875 45 45v40.3125c-23.394531 3.730469-49.058594 5.6875-75 5.6875s-51.605469-1.957031-75-5.6875zm-30 26.746094v38.53125c6.835938 1.011718 45 10.722656 105 10.722656 60.15625 0 98.324219-9.734375 105-10.722656v-38.535156c15.023438 3.855468 60 18.761718 60 34.257812 0 24.558594-91.566406 45-165 45-102.890625 0-166-28.613281-166-45 0-8.195312 19.503906-23.613281 61-34.253906zm178.492188 259.253906c-6.96875 34.191406-37.273438 60-73.492188 60s-66.523438-25.808594-73.492188-60h31.070313c6.195313 17.457031 22.867187 30 42.421875 30s36.226562-12.542969 42.421875-30zm-48.515626-64.644531-9.976562 3.546875v46.097656c0 8.269531-6.730469 15-15 15s-15-6.730469-15-15v-46.097656l-9.976562-3.546875c-29.921876-10.636719-50.023438-38.910157-50.023438-70.355469v-20.265625c23.886719 3.492187 49.484375 5.265625 75 5.265625 26.191406 0 51.613281-1.816406 75-5.265625v20.265625c0 31.445312-20.101562 59.71875-50.023438 70.355469zm-159.976562-40.355469v-64.203125c9.285156 3.199219 19.351562 6.003906 30 8.414063v25.789062c0 40.503906 23.714844 77.234375 60 94.488281v10.511719h-15c-41.355469 0-75-33.644531-75-75zm0 150c0-20.074219 13.214844-37.117188 31.402344-42.894531 7.390625 44.917969 43.386718 80.324219 88.597656 86.816406v32.078125h-120zm270 76h-120v-32.074219c45.210938-6.496093 81.207031-41.898437 88.597656-86.820312 18.1875 5.777343 31.402344 22.820312 31.402344 42.894531zm-75-151h-15v-10.511719c36.285156-17.253906 60-53.984375 60-94.488281v-25.855469c9.566406-2.1875 18.617188-4.6875 27.023438-7.488281 1.007812-.335938 1.996093-.675781 2.976562-1.015625v64.359375c0 41.355469-33.644531 75-75 75zm226-137.085938v124.171876l-93.820312-62.085938zm0 0"></path></svg>