<?xml version="1.0" encoding="iso-8859-1"?>
<!-- Uploaded to: SVG Repo, www.svgrepo.com, Generator: SVG Repo Mixer Tools -->
<!DOCTYPE svg PUBLIC "-//W3C//DTD SVG 1.1//EN" "http://www.w3.org/Graphics/SVG/1.1/DTD/svg11.dtd">
<svg fill="#000000" height="800px" width="800px" version="1.1" id="Capa_1" xmlns="http://www.w3.org/2000/svg" xmlns:xlink="http://www.w3.org/1999/xlink" 
	 viewBox="0 0 453.152 453.152" xml:space="preserve">
<path d="M296.122,453.152c-48.616,0-88.167-39.552-88.167-88.167v-46.16c0-5.522,4.477-10,10-10h37.113c5.523,0,10,4.478,10,10
	v46.16c0,17.124,13.931,31.055,31.054,31.055s31.055-13.931,31.055-31.055v-76.038h-64.164c-12.903,0-23.4-10.497-23.4-23.4
	c0-5.159-4.197-9.356-9.356-9.356h-7.362c-5.159,0-9.356,4.197-9.356,9.356c0,12.903-10.497,23.4-23.399,23.4H65.929
	c-11.657,0-22.001-4.796-29.127-13.505c-7.976-9.748-10.93-23.356-8.106-37.337l19.724-97.658
	c4.566-22.61,25.522-40.322,47.709-40.322h231.048V10c0-5.522,4.477-10,10-10h37.113c5.523,0,10,4.478,10,10v99.313
	c10.47,7.535,17.953,18.813,20.442,31.135l19.725,97.659c2.824,13.979-0.131,27.588-8.106,37.336
	c-7.125,8.709-17.47,13.505-29.127,13.505h-2.933v76.038C384.29,413.601,344.738,453.152,296.122,453.152z M227.955,328.825v36.16
	c0,37.587,30.58,68.167,68.167,68.167c37.588,0,68.167-30.58,68.167-68.167V20h-17.113v344.985
	c0,28.151-22.903,51.055-51.055,51.055c-28.151,0-51.054-22.903-51.054-51.055v-36.16H227.955z M384.29,268.947h2.933
	c5.626,0,10.345-2.134,13.648-6.17c4.162-5.086,5.612-12.635,3.981-20.711c0-0.001,0-0.001,0-0.001l-19.725-97.659
	c-0.213-1.058-0.494-2.106-0.837-3.144V268.947z M222.895,236.19h7.362c16.187,0,29.356,13.169,29.356,29.356
	c0,1.875,1.525,3.4,3.4,3.4h64.164V120.125H96.129c-12.576,0-25.447,11.119-28.104,24.281L48.3,242.065
	c-1.631,8.077-0.181,15.626,3.981,20.712c3.303,4.036,8.022,6.17,13.648,6.17h124.21c1.875,0,3.399-1.525,3.399-3.4
	C193.538,249.359,206.708,236.19,222.895,236.19z M273.753,252.137c-5.523,0-10-4.478-10-10c0-5.771-11.546-14.154-29.64-14.154
	h-15.075c-18.093,0-29.64,8.383-29.64,14.154c0,5.522-4.477,10-10,10s-10-4.478-10-10c0-19.152,21.804-34.154,49.64-34.154h15.075
	c27.835,0,49.64,15.002,49.64,34.154C283.753,247.659,279.276,252.137,273.753,252.137z M76.698,213.451
	c-0.656,0-1.322-0.065-1.99-0.2c-5.414-1.093-8.916-6.368-7.823-11.781l9.86-48.818c2.738-13.553,15.367-24.168,28.751-24.168
	h28.176c5.523,0,10,4.478,10,10s-4.477,10-10,10h-28.176c-3.928,0-8.288,3.874-9.147,8.127l-9.86,48.818
	C85.531,210.175,81.359,213.451,76.698,213.451z"/>
</svg>