<?xml version="1.0" encoding="utf-8"?>

<!DOCTYPE svg PUBLIC "-//W3C//DTD SVG 1.1//EN" "http://www.w3.org/Graphics/SVG/1.1/DTD/svg11.dtd">
<!-- Uploaded to: SVG Repo, www.svgrepo.com, Generator: SVG Repo Mixer Tools -->
<svg height="800px" width="800px" version="1.1" id="_x32_" xmlns="http://www.w3.org/2000/svg" xmlns:xlink="http://www.w3.org/1999/xlink" 
	 viewBox="0 0 512 512"  xml:space="preserve">
<style type="text/css">
	.st0{fill:#000000;}
</style>
<g>
	<path class="st0" d="M164.681,127.445c21.356,0,38.689-17.324,38.689-38.688c0-21.366-17.333-38.689-38.689-38.689
		c-21.374,0-38.698,17.324-38.698,38.689C125.983,110.121,143.307,127.445,164.681,127.445z"/>
	<path class="st0" d="M272.935,238.2l-25.491-41.199c-23.587-36.701-40.192-49.816-80.15-51.019
		c-27.451-0.822-75.502,8.55-87.626,76.295L65.295,329.915c-0.392,8.308,6.02,15.363,14.337,15.755
		c8.297,0.402,15.345-6.011,15.746-14.318l17.128-77.985l7.748,239.003c0,10.846,8.774,19.629,19.62,19.629
		c10.846,0,19.629-8.784,19.629-19.629l7.794-138.318l7.794,138.318c0,10.846,8.792,19.629,19.629,19.629
		c10.846,0,19.629-8.784,19.629-19.629l7.748-247.525l21.664,19.545c1.661,1.83,3.434,3.38,5.236,4.733
		c3.388,4.05,8.485,6.646,14.188,6.646l15.662-0.738c-0.037-4.274-0.066-8.596-0.066-13.039c0-8.037,0.084-15.821,0.233-23.4
		L272.935,238.2z"/>
	<path class="st0" d="M370.698,0c-12.012,0-76.034,31.296-76.034,261.993c0,161.644,27.414,205.448,45.764,241.27
		c1.512,2.95,5.246,8.737,11.36,8.737h37.811c6.114,0,9.847-5.787,11.359-8.737c18.35-35.823,45.764-79.627,45.764-241.27
		C446.723,31.296,382.692,0,370.698,0z"/>
</g>
</svg>