<svg xmlns="http://www.w3.org/2000/svg" width="48" height="48" enable-background="new 0 0 48 48" viewBox="0 0 48 48" id="traditional-stove"><path d="M36,48H12c-0.553,0-1-0.448-1-1V28c0-3.309,2.691-6,6-6h14c3.309,0,6,2.691,6,6v19C37,47.552,36.553,48,36,48z M13,46h22
		V28c0-2.206-1.794-4-4-4H17c-2.206,0-4,1.794-4,4V46z"></path><path d="M31,24H17c-0.553,0-1-0.448-1-1v-2.764c0-1.544,0.753-2.951,2-3.805V13c0-0.552,0.447-1,1-1h10c0.553,0,1,0.448,1,1v3.431
		c1.247,0.854,2,2.261,2,3.805V23C32,23.552,31.553,24,31,24z M18,22h12v-1.764c0-0.998-0.555-1.895-1.447-2.341
		C28.214,17.725,28,17.379,28,17v-3h-8v3c0,0.379-0.214,0.725-0.553,0.895C18.555,18.341,18,19.238,18,20.236V22z"></path><path d="M35,18h-8c-0.553,0-1-0.448-1-1s0.447-1,1-1h8c0.553,0,1,0.448,1,1S35.553,18,35,18z"></path><path d="M37 20c-1.654 0-3-1.346-3-3s1.346-3 3-3 3 1.346 3 3S38.654 20 37 20zM37 16c-.552 0-1 .449-1 1s.448 1 1 1 1-.449 1-1S37.552 16 37 16zM31 14H17c-.553 0-1-.448-1-1s.447-1 1-1h14c.553 0 1 .448 1 1S31.553 14 31 14z"></path><path d="M21.001 14h-5c-2.206 0-4-1.794-4-4L12 4c0-2.206 1.794-4 4-4h5.001c.553 0 1 .448 1 1v4c0 .552-.447 1-1 1h-3v2h3c.553 0 1 .448 1 1v4C22.001 13.552 21.554 14 21.001 14zM16 2c-1.103 0-2 .897-2 2l.001 6c0 1.103.897 2 2 2h4v-2h-3c-.553 0-1-.448-1-1V5c0-.552.447-1 1-1h3V2H16zM31.999 14h-5c-.553 0-1-.448-1-1V9c0-.552.447-1 1-1h3V6h-3c-.553 0-1-.448-1-1V1c0-.552.447-1 1-1H32c2.206 0 4 1.794 4 4l-.001 6C35.999 12.206 34.205 14 31.999 14zM27.999 12h4c1.103 0 2-.897 2-2L34 4c0-1.103-.897-2-2-2h-4.001v2h3c.553 0 1 .448 1 1v4c0 .552-.447 1-1 1h-3V12zM24 48c-3.859 0-7-3.188-7-7.106 0-2.339 1.603-3.234 2.891-3.954C21.49 36.047 23 35.204 23 31.733c0-.419.07-.755.215-1.027C23.449 30.264 23.881 30 24.37 30 26.738 30 31 38.111 31 40.894 31 44.813 27.859 48 24 48zM24.964 32.687c-.305 3.881-2.479 5.096-4.098 6C19.572 39.409 19 39.775 19 40.894 19 43.709 21.243 46 24 46s5-2.291 5-5.106C29 38.823 26.441 34.438 24.964 32.687zM25.011 31.573L25.011 31.573 25.011 31.573z"></path><path d="M24,48c-1.654,0-3-1.346-3-3c0-1.165,0.936-5.001,3-5.001s3,3.836,3,5.001C27,46.654,25.654,48,24,48z M24,42.083
		c-0.429,0.48-1,2.09-1,2.917c0,0.551,0.448,1,1,1s1-0.449,1-1C25,44.174,24.429,42.563,24,42.083z"></path></svg>