<svg xmlns="http://www.w3.org/2000/svg" enable-background="new 0 0 64 64" viewBox="0 0 64 64" id="forest"><path d="M60 58h-2c-1.104 0-2 .896-2 2s.896 2 2 2h2c1.104 0 2-.896 2-2S61.104 58 60 58zM52 58h-3V45.449c7.253-.516 13-6.567 13-13.949 0-3.768-1.487-7.306-4.127-9.925C58.286 20.435 58.5 19.222 58.5 18c0-5.79-4.71-10.5-10.5-10.5-1.06 0-2.092.164-3.088.471C41.792 4.323 37.166 2 32 2c-4.43 0-8.457 1.717-11.486 4.503C19.074 5.508 17.561 5 16 5 7.75 5 2 19.229 2 32c0 7.023 5.203 12.837 11.953 13.833v12.172C12.871 58.03 12 58.912 12 60c0 1.104.896 2 2 2h38c1.104 0 2-.896 2-2S53.104 58 52 58zM29.466 35.79c.178.027.354.061.534.082V58H17.953V45.849C23.438 45.075 27.971 41.11 29.466 35.79zM34 35.872c.227-.027.45-.068.675-.103 1.52 4.783 5.468 8.344 10.325 9.398V58H34V35.872zM48 11.5c3.584 0 6.5 2.916 6.5 6.5 0 1.096-.277 2.177-.802 3.127-.472.855-.257 1.926.508 2.533C56.617 25.574 58 28.431 58 31.5c0 5.177-3.954 9.446-9 9.949V37c0-1.104-.896-2-2-2s-2 .896-2 2v4.036c-3.027-.945-5.451-3.282-6.474-6.343C44.67 32.129 49 26.062 49 19c0-2.677-.639-5.201-1.745-7.455C47.501 11.517 47.749 11.5 48 11.5zM32 6c7.168 0 13 5.832 13 13 0 6.487-4.781 11.863-11 12.83v-9.002l4.414-4.414c.781-.781.781-2.047 0-2.828-.781-.781-2.047-.781-2.828 0L34 17.172V13.5c0-1.104-.896-2-2-2s-2 .896-2 2v9.672l-1.586-1.586c-.78-.781-2.048-.781-2.828 0-.781.781-.781 2.047 0 2.828L30 28.828v3.002C23.78 30.863 19 25.487 19 19 19 11.832 24.832 6 32 6zM6 32C6 20.607 11.047 9 16 9c.606 0 1.231.207 1.864.573C16.057 12.273 15 15.515 15 19c0 7.113 4.396 13.211 10.61 15.743-1.026 3.601-4.001 6.332-7.656 7.061V37c0-1.104-.896-2-2-2s-2 .896-2 2v4.788C9.418 40.84 6 36.813 6 32zM8 58H4c-1.104 0-2 .896-2 2s.896 2 2 2h4c1.104 0 2-.896 2-2S9.104 58 8 58z"></path></svg>