<svg xmlns="http://www.w3.org/2000/svg" viewBox="0 0 64 64" id="wine"><path d="M34.104 13.526a2.381 2.381 0 1 0-.222-4.758l-.892.041-.041-.892a2.381 2.381 0 1 0-4.758.222l.263 5.65 5.65-.263z"></path><circle cx="25.125" cy="4.396" r="1.25"></circle><circle cx="38.875" cy="5.646" r="1.25"></circle><circle cx="32" cy="18.146" r="1.25"></circle><path d="M8.795 35.833c-1.268 4.794 1.434 9.718 6.068 11.278l-2.105 7.959-6.075 2.832 11.164 2.952-3.881-5.464 2.105-7.959c4.8.935 9.582-2.01 10.85-6.804l4.314-16.314-18.127-4.793-4.313 16.313zm7.111-11.507a.628.628 0 0 1 .474-.064l9.668 2.557c.334.088.533.43.444.764l-3.196 12.085a5.585 5.585 0 0 1-2.61 3.424 5.584 5.584 0 0 1-4.266.576 5.585 5.585 0 0 1-3.424-2.61 5.59 5.59 0 0 1-.576-4.266l3.196-12.085a.622.622 0 0 1 .29-.381zm27.625 12.565c.603-.194 1.064-.636 1.409-1.351.497-1.028 1.224-1.701 2.161-2 .83-.264 1.67-.176 2.323-.011l-2.089-7.899-8.459 2.237 2.323 8.783c.438.188 1.431.531 2.332.241z"></path><path d="m50.371 37.111-.565-2.136c-.439-.188-1.432-.531-2.332-.241-.603.194-1.064.636-1.409 1.35-.497 1.028-1.224 1.701-2.161 2-.379.121-.76.168-1.125.168-.434 0-.843-.068-1.199-.157l.331 1.253c.299 1.13 1.02 2.076 2.03 2.663s2.189.747 3.318.448a4.345 4.345 0 0 0 2.663-2.03 4.338 4.338 0 0 0 .449-3.318zM16.74 42.459c1.13.299 2.308.14 3.318-.448 2.087-1.214 2.1-3.272 2.361-3.916-.766.194-1.571.229-2.324-.011-2.32-.739-1.861-2.8-3.57-3.35-.9-.29-1.893.052-2.332.241l-.565 2.136a4.342 4.342 0 0 0 .448 3.318 4.347 4.347 0 0 0 2.664 2.03z"></path><path d="M19.06 35.541c.753 1.559 2.149 1.789 3.741 1.109l2.322-8.782-8.459-2.237-2.089 7.899c1.933-.488 3.587.152 4.485 2.011zm27.092 25.313 11.164-2.952-6.075-2.832-2.105-7.959c4.634-1.56 7.336-6.484 6.068-11.278L50.89 19.519l-18.127 4.793 4.314 16.314c1.268 4.794 6.05 7.739 10.85 6.804l2.105 7.959-3.88 5.465zm-2.839-17.762a5.587 5.587 0 0 1-2.61-3.424l-3.196-12.085a.625.625 0 0 1 .444-.764l9.668-2.557a.628.628 0 0 1 .764.444l3.196 12.085a5.585 5.585 0 0 1-.576 4.266 5.594 5.594 0 0 1-3.424 2.61 5.587 5.587 0 0 1-4.266-.575z"></path></svg>