<svg fill="#000000" height="200px" width="200px" version="1.1" id="Capa_1" xmlns="http://www.w3.org/2000/svg" xmlns:xlink="http://www.w3.org/1999/xlink" viewBox="0 0 343.711 343.711" xml:space="preserve"><g id="SVGRepo_bgCarrier" stroke-width="0"></g><g id="SVGRepo_tracerCarrier" stroke-linecap="round" stroke-linejoin="round"></g><g id="SVGRepo_iconCarrier"> <g> <path d="M339.711,253.124h-1.357v-36.643h1.357c2.209,0,4-1.791,4-4c0-2.209-1.791-4-4-4h-1.471 c-1.805-30.935-26.87-55.718-57.922-57.074V81.763c0-28.399-21.826-51.786-49.583-54.295v-9.107c0-5.448-4.437-9.88-9.89-9.88 h-97.981c-5.448,0-9.88,4.432-9.88,9.88v9.106C85.224,29.972,63.393,53.36,63.393,81.763v69.644 c-31.051,1.356-56.117,26.139-57.922,57.074H4c-2.209,0-4,1.791-4,4c0,2.209,1.791,4,4,4h1.357v36.643H4c-2.209,0-4,1.791-4,4 c0,2.209,1.791,4,4,4h1.357v12.259c0,14.41,11.724,26.133,26.134,26.133h31.901v2.436c0,18.349,14.928,33.277,33.277,33.277 h150.371c18.35,0,33.277-14.928,33.277-33.277v-2.436h31.901c14.41,0,26.134-11.723,26.134-26.133v-12.259h1.357 c2.209,0,4-1.791,4-4C343.711,254.915,341.92,253.124,339.711,253.124z M330.353,253.124h-50.035v-36.643h50.035V253.124z M330.219,208.481h-49.901v-49.074C306.958,160.747,328.434,181.959,330.219,208.481z M272.268,79.78 c-7.681,19.919-20.984,36.963-38.531,49.319c-5.885,4.144-12.113,7.645-18.597,10.499v-14.617h4.482c2.209,0,4-1.791,4-4v-16.964 c0-2.209-1.791-4-4-4h-4.482V35.233h10.648C250.781,35.233,271.225,55.041,272.268,79.78z M137.052,108.018v8.964h-8.964v-8.964 H137.052z M141.052,124.981c2.209,0,4-1.791,4-4v-16.964c0-2.209-1.791-4-4-4h-4.482V35.233h70.57v64.784h-4.482 c-2.209,0-4,1.791-4,4v16.964c0,2.209,1.791,4,4,4h4.482v17.755c-11.243,3.9-23.126,5.924-35.285,5.924s-24.042-2.024-35.285-5.924 v-17.755H141.052z M206.658,116.981v-8.964h8.965v8.964H206.658z M122.865,16.481h97.981c1.042,0,1.89,0.843,1.89,1.88v8.872 h-101.75v-8.872C120.985,17.325,121.829,16.481,122.865,16.481z M117.922,35.233h10.648v64.784h-4.482c-2.209,0-4,1.791-4,4v16.964 c0,2.209,1.791,4,4,4h4.482v14.617c-6.483-2.854-12.711-6.355-18.597-10.499C92.427,116.743,79.124,99.7,71.443,79.78 C72.486,55.041,92.93,35.233,117.922,35.233z M63.393,159.407v49.074H13.492C15.277,181.959,36.753,160.747,63.393,159.407z M13.357,216.481h50.035v36.643H13.357V216.481z M31.491,291.516c-9.999,0-18.134-8.135-18.134-18.133v-12.259h50.035v30.392 H31.491z M272.318,301.952c0,13.938-11.339,25.277-25.277,25.277H96.67c-13.938,0-25.277-11.339-25.277-25.277V98.291 c8.378,14.716,19.902,27.44,33.976,37.35c7.294,5.136,15.071,9.366,23.202,12.653v19.546c0,2.209,1.791,4,4,4s4-1.791,4-4V151.18 c11.298,3.615,23.166,5.48,35.285,5.48s23.987-1.865,35.285-5.48v16.659c0,2.209,1.791,4,4,4s4-1.791,4-4v-19.546 c8.131-3.286,15.909-7.516,23.202-12.653c14.069-9.906,25.598-22.62,33.976-37.329V301.952z M330.353,273.382 c0,9.999-8.135,18.133-18.134,18.133h-31.901v-30.392h50.035V273.382z"></path> <path d="M236.34,200.445H107.371c-4.312,0-7.818,3.507-7.818,7.818v58.029c0,21.765,17.707,39.473,39.473,39.473h65.66 c21.766,0,39.473-17.707,39.473-39.473v-58.029C244.158,203.953,240.651,200.445,236.34,200.445z M171.855,227.231 c-2.209,0-4,1.791-4,4v12.964h-32.634c-15.257,0-27.669-12.412-27.669-27.669v-8.081h128.605v8.081 c0,15.257-12.412,27.669-27.669,27.669h-32.634v-12.964C175.855,229.022,174.064,227.231,171.855,227.231z M236.158,266.293 c0,17.354-14.118,31.473-31.473,31.473h-65.66c-17.355,0-31.473-14.119-31.473-31.473v-27.289 c6.546,8.042,16.516,13.191,27.669,13.191h32.634v21.893c0,2.209,1.791,4,4,4s4-1.791,4-4v-21.893h32.634 c11.153,0,21.123-5.149,27.669-13.191V266.293z"></path> </g> </g></svg>