<?xml version="1.0" encoding="iso-8859-1"?>
<!-- Uploaded to: SVG Repo, www.svgrepo.com, Generator: SVG Repo Mixer Tools -->
<svg version="1.1" id="Layer_1" xmlns="http://www.w3.org/2000/svg" xmlns:xlink="http://www.w3.org/1999/xlink" 
	 viewBox="0 0 496 496" xml:space="preserve">
<rect x="156" y="387" style="fill:#FF9900;" width="160" height="98"/>
<path style="fill:#FF6600;" d="M164,384v77.2c0,7.2,5.6,12.8,12.8,12.8h117.6c7.2,0,12.8-5.6,12.8-12.8V384h13v102H151V384H164z"/>
<rect x="156" y="10.7" style="fill:#FF9900;" width="160" height="98"/>
<g>
	<path style="fill:#FF6600;" d="M151,112.7v-102h169.2v102h-13V35.5c0-7.2-5.6-12.8-12.8-12.8H176.8c-7.2,0-12.8,5.6-12.8,12.8v77.2
		H151z"/>
	<rect x="359" y="219" style="fill:#FF6600;" width="18" height="42"/>
	<path style="fill:#FF6600;" d="M319.2,115H152c-18.5,0-33,14.5-33,33v199.2c0,18.5,14.5,33,33,33h168c17.9,0,33-15.1,33-33V148
		C353,129.8,337.8,115,319.2,115z M327,352c0,1.2-1.8,3-3,3H148c-1.2,0-3-1.8-3-3V144c0-1.2,1.8-3,3-3h176c1.2,0,3,1.8,3,3V352z"/>
</g>
<path style="fill:#D9CDC1;" d="M311,144.9h-28.1h-18.7H236h-84.3V183v6.4v23.4v25.8v44.5v23.4V351H236h28.1h18.7H311h9.4v-43.6
	v-29.9v-20.3v-0.9v-16.9v-26.7V183v-38.1H311z"/>
<path style="fill:#FFF8EF;" d="M300,160h-24h-16h-24h-72v32.5v5.5v20v22v38v20v38h72h24h16h24h8v-37.2v-25.5V256v-0.8v-14.4V218
	v-25.5V160H300z"/>
<path style="fill:#42210B;" d="M276,160h24v16h-24V160z M236,160h24v16h-24V160z M188.8,240l7.2-41.6c0.8-4,4-6.4,7.2-6.4
	c4,0,7.2,2.4,8,6.4l15.2,61.6l8.8-44.8c0.8-3.2,3.2-5.6,6.4-6.4s6.4,1.6,8,4l13.6,28H308v16h-48c-3.2,0-5.6-1.6-7.2-4l-5.6-12.8
	L236,297.6c-0.8,4-4,6.4-8,6.4l0,0c-4,0-7.2-2.4-8-6.4l-14.4-58.4l-1.6,10.4c-0.8,4-4,6.4-8,6.4h-32v-16H188.8z M316,152H156v104v88
	h160v-88v-16V152z M148,136h176c4,0,8,4,8,8v208c0,4-4,8-8,8H148c-4,0-8-4-8-8V144C140,140,144,136,148,136z M316,480v-88H156v88
	H316z M156,104h160V16H156V104z M364,224v32h8v-32H364z M140,8c0-4,4-8,8-8h176c4,0,8,4,8,8v97.6c18.4,5.6,32,22.4,32,42.4v60h16
	c4.8,0,8,4,8,8v48c0,4-4,8-8,8h-16v76c0,20-13.6,36.8-32,42.4V488c0,4-4,8-8,8H148c-4,0-8-4-8-8v-97.6c-18.4-5.6-32-22.4-32-42.4
	V148c0-20,13.6-36.8,32-42.4V8z M124,348c0,15.2,12.8,28,28,28h167.2c15.2,0,28-12.8,28-28V148c0-16-12.8-28-28-28H152
	c-16,0-28,12.8-28,28V348z"/>
</svg>