<?xml version="1.0" encoding="iso-8859-1"?>
<!-- Uploaded to: SVG Repo, www.svgrepo.com, Generator: SVG Repo Mixer Tools -->
<svg version="1.1" id="Layer_1" xmlns="http://www.w3.org/2000/svg" xmlns:xlink="http://www.w3.org/1999/xlink" 
	 viewBox="0 0 512 512" xml:space="preserve">
<path style="fill:#10BAFC;" d="M90.45,479.941H52.244c-23.083,0-41.795-18.712-41.795-41.795v-75.235
	c0-23.083,18.712-41.795,41.795-41.795h38.205v158.824H90.45z"/>
<rect x="90.446" y="321.118" style="fill:#074761;" width="35.527" height="158.824"/>
<path style="fill:#10BAFC;" d="M421.549,321.119h38.206c23.083,0,41.795,18.712,41.795,41.794l0.001,75.235
	c0,23.084-18.712,41.796-41.796,41.796h-38.205L421.549,321.119z"/>
<rect x="386.027" y="321.118" style="fill:#074761;" width="35.527" height="158.824"/>
<path style="fill:#0084FF;" d="M255.997,32.056c-67.807,0-129.193,27.484-173.629,71.919l25.337,25.337
	c38.117-37.638,90.492-60.873,148.293-60.873c57.803,0,110.178,23.233,148.297,60.873l25.337-25.337
	C385.195,59.539,323.807,32.056,255.997,32.056z"/>
<path d="M456.62,357.359c-5.771,0-10.449,4.679-10.449,10.449v4.678c0,5.771,4.678,10.449,10.449,10.449
	c5.771,0,10.449-4.678,10.449-10.449v-4.678C467.069,362.037,462.391,357.359,456.62,357.359z"/>
<path d="M55.38,382.934c5.771,0,10.449-4.678,10.449-10.449v-4.678c0-5.77-4.678-10.449-10.449-10.449s-10.449,4.679-10.449,10.449
	v4.678C44.931,378.256,49.609,382.934,55.38,382.934z"/>
<path d="M512,277.605c0-68.376-26.626-132.66-74.974-181.011c-0.002-0.002-0.004-0.004-0.006-0.007
	c-0.002-0.002-0.004-0.004-0.007-0.006c-48.351-48.347-112.637-74.975-181.016-74.975S123.331,48.235,74.98,96.586
	C26.628,144.939,0,209.225,0,277.605v160.541c0,28.807,23.437,52.244,52.244,52.244l73.732,0.002
	c5.771,0,10.449-4.678,10.449-10.449V321.117c0-5.771-4.678-10.449-10.449-10.449H52.244c-11.752,0-22.608,3.903-31.346,10.477
	v-43.54c0-61.066,23.409-116.764,61.717-158.606l17.702,17.702c4.064,4.063,10.643,4.082,14.731,0.046
	c37.785-37.31,87.842-57.859,140.952-57.859c53.11,0,103.169,20.548,140.955,57.859c2.035,2.009,4.688,3.013,7.341,3.013
	c2.675,0,5.349-1.021,7.388-3.061l17.701-17.701c38.309,41.843,61.718,97.54,61.718,158.606v43.543
	c-8.737-6.574-19.594-10.477-31.347-10.477l-73.733-0.002c-5.771,0-10.449,4.678-10.449,10.449v158.827
	c0,5.771,4.678,10.449,10.449,10.449h73.733c28.808,0,52.245-23.437,52.245-52.245V277.605z M115.527,469.495h-14.629V331.566h14.63
	v137.929H115.527z M52.244,331.566h27.756v137.927H65.829V406.29c0-5.771-4.678-10.449-10.449-10.449s-10.449,4.678-10.449,10.449
	v62.332c-13.767-3.304-24.033-15.71-24.033-30.475v-75.235C20.898,345.628,34.96,331.566,52.244,331.566z M404.08,114.75
	c-40.728-36.678-92.915-56.759-148.082-56.759c-55.165,0-107.352,20.081-148.078,56.759l-10.528-10.527
	c41.842-38.308,97.539-61.717,158.605-61.717c61.068,0,116.766,23.409,158.61,61.718L404.08,114.75z M396.471,331.566h14.63
	l0.001,137.929h-14.631V331.566z M467.069,468.624V406.29c0-5.771-4.678-10.449-10.449-10.449c-5.771,0-10.449,4.678-10.449,10.449
	v63.205h-14.172l-0.001-137.927h27.757c17.284,0,31.346,14.061,31.346,31.345v75.235
	C491.101,452.914,480.836,465.32,467.069,468.624z"/>
</svg>